<svg width="481" height="668" viewBox="0 0 481 668" fill="none" xmlns="http://www.w3.org/2000/svg">
<path d="M446.486 201.101C415.057 175.583 376.769 159.954 336.46 156.19C296.151 152.425 255.631 160.694 220.02 179.951C184.409 199.208 155.306 228.589 136.388 264.381C117.47 300.173 109.586 340.77 113.733 381.041C114.427 387.795 112.409 394.548 108.124 399.815C103.839 405.082 97.6374 408.43 90.8832 409.124C84.1291 409.818 77.3758 407.801 72.1091 403.516C66.8424 399.231 63.4936 393.029 62.7995 386.275C59.3252 352.875 62.4756 319.119 72.0702 286.939C81.6648 254.759 97.515 224.789 118.713 198.745C207.813 88.9962 369.002 72.2583 478.751 161.359C588.5 250.459 605.238 411.648 516.138 521.397C495.005 547.494 468.931 569.164 439.409 585.165C409.887 601.167 377.498 611.186 344.097 614.648C337.344 615.357 330.587 613.354 325.311 609.08C320.035 604.806 316.673 598.611 315.965 591.858C315.256 585.106 317.259 578.348 321.533 573.073C325.807 567.797 332.002 564.435 338.755 563.726C379.019 559.511 417.129 543.454 448.271 517.585C479.412 491.717 502.186 457.197 513.716 418.39C525.245 379.582 525.012 338.228 513.046 299.552C501.079 260.877 477.917 226.617 446.486 201.101Z" fill="url(#paint0_linear_1_3007)" fill-opacity="0.5"/>
<path d="M349.693 320.327C339.153 311.77 325.645 307.751 312.141 309.153C298.637 310.555 286.243 317.264 277.685 327.805C269.128 338.345 265.109 351.853 266.511 365.357C267.913 378.861 274.622 391.255 285.163 399.812C295.703 408.37 309.211 412.389 322.715 410.987C336.219 409.585 348.613 402.876 357.17 392.335C365.728 381.795 369.747 368.287 368.345 354.783C366.943 341.279 360.233 328.885 349.693 320.327Z" fill="url(#paint1_linear_1_3007)" fill-opacity="0.5"/>
<path d="M237.942 295.536C248.553 282.461 262.224 272.205 277.745 265.676C293.266 259.147 310.158 256.548 326.924 258.107C343.69 259.667 359.813 265.338 373.863 274.617C387.914 283.897 399.459 296.499 407.476 311.306C415.492 326.114 419.733 342.67 419.822 359.508C419.91 376.347 415.845 392.947 407.985 407.838C400.126 422.73 388.714 435.453 374.762 444.88C360.81 454.308 344.749 460.148 328 461.885C324.655 462.232 321.411 463.235 318.454 464.836C315.496 466.437 312.883 468.605 310.763 471.216C308.643 473.827 307.059 476.83 306.099 480.053C305.14 483.277 304.825 486.658 305.173 490.003C305.874 496.759 309.231 502.959 314.504 507.24C317.115 509.36 320.118 510.944 323.341 511.904C326.564 512.863 329.945 513.178 333.29 512.83C363.502 509.694 392.106 497.669 415.483 478.277C438.861 458.884 455.963 432.994 464.627 403.882C473.291 374.77 473.127 343.742 464.156 314.722C455.185 285.703 437.811 259.996 414.229 240.851C390.648 221.706 361.919 209.984 331.676 207.167C301.432 204.351 271.033 210.565 244.322 225.026C217.61 239.486 195.787 261.543 181.611 288.406C167.436 315.27 161.545 345.733 164.683 375.945C165.031 379.289 166.035 382.531 167.636 385.487C169.238 388.443 171.406 391.055 174.017 393.173C176.628 395.291 179.63 396.874 182.853 397.832C186.075 398.79 189.455 399.103 192.799 398.755C196.143 398.406 199.385 397.403 202.341 395.801C205.297 394.2 207.909 392.032 210.027 389.421C212.145 386.81 213.728 383.808 214.685 380.585C215.643 377.362 215.957 373.983 215.608 370.639C214.195 357.266 215.441 343.746 219.274 330.856C223.107 317.967 229.451 305.963 237.942 295.536Z" fill="url(#paint2_linear_1_3007)" fill-opacity="0.5"/>
<defs>
<linearGradient id="paint0_linear_1_3007" x1="478.751" y1="161.359" x2="198.71" y2="506.298" gradientUnits="userSpaceOnUse">
<stop stop-color="white"/>
<stop offset="1" stop-color="white" stop-opacity="0"/>
</linearGradient>
<linearGradient id="paint1_linear_1_3007" x1="349.693" y1="320.327" x2="285.163" y2="399.812" gradientUnits="userSpaceOnUse">
<stop stop-color="white"/>
<stop offset="1" stop-color="white" stop-opacity="0"/>
</linearGradient>
<linearGradient id="paint2_linear_1_3007" x1="414.229" y1="240.851" x2="244.259" y2="450.211" gradientUnits="userSpaceOnUse">
<stop stop-color="white"/>
<stop offset="1" stop-color="white" stop-opacity="0"/>
</linearGradient>
</defs>
</svg>
