<svg width="374" height="318" viewBox="0 0 374 318" fill="none" xmlns="http://www.w3.org/2000/svg">
<g filter="url(#filter0_d_1_2920)">
<g clip-path="url(#clip0_1_2920)">
<rect x="85" y="50" width="233.333" height="217" rx="10" fill="white"/>
<path d="M109.477 96.1667V84.57H112.972C113.898 84.57 114.692 84.717 115.357 85.011C116.032 85.305 116.549 85.7242 116.908 86.2687C117.268 86.8131 117.447 87.461 117.447 88.2123C117.447 88.6805 117.36 89.1215 117.186 89.5353C117.023 89.9382 116.783 90.303 116.467 90.6297C116.162 90.9563 115.792 91.2231 115.357 91.43L118.052 96.1667H115.847L113.609 91.9527C113.489 91.9635 113.353 91.9744 113.201 91.9853C113.059 91.9853 112.912 91.9853 112.76 91.9853C112.379 91.9853 111.938 91.9472 111.437 91.871V96.1667H109.477ZM111.437 86.3013V90.1397C111.665 90.1832 111.899 90.2159 112.139 90.2377C112.389 90.2485 112.634 90.254 112.874 90.254C113.68 90.254 114.306 90.0798 114.752 89.7313C115.199 89.3829 115.422 88.8983 115.422 88.2777C115.422 87.657 115.204 87.1724 114.769 86.824C114.333 86.4755 113.723 86.3013 112.939 86.3013H111.437ZM123.22 96.4117C122.589 96.4117 122.006 96.3028 121.473 96.085C120.95 95.8563 120.493 95.5405 120.101 95.1377C119.709 94.7348 119.404 94.2611 119.186 93.7167C118.979 93.1613 118.876 92.5515 118.876 91.8873C118.876 91.2449 118.979 90.6514 119.186 90.107C119.404 89.5625 119.698 89.0889 120.068 88.686C120.449 88.2722 120.895 87.951 121.407 87.7223C121.919 87.4937 122.474 87.3793 123.073 87.3793C123.672 87.3793 124.217 87.4882 124.707 87.706C125.207 87.9129 125.638 88.2123 125.997 88.6043C126.367 88.9963 126.65 89.4645 126.846 90.009C127.042 90.5425 127.14 91.136 127.14 91.7893V92.3447H120.819C120.874 92.8455 121.004 93.2811 121.211 93.6513C121.429 94.0107 121.707 94.2883 122.044 94.4843C122.382 94.6803 122.774 94.7783 123.22 94.7783C124.113 94.7783 124.81 94.3809 125.311 93.586L126.961 94.223C126.765 94.6694 126.476 95.0614 126.095 95.399C125.725 95.7257 125.289 95.9761 124.788 96.1503C124.298 96.3245 123.776 96.4117 123.22 96.4117ZM123.073 88.8983C122.692 88.8983 122.349 88.9854 122.044 89.1597C121.75 89.3339 121.5 89.5789 121.293 89.8947C121.086 90.2104 120.944 90.5807 120.868 91.0053H125.18C125.115 90.5807 124.99 90.2104 124.805 89.8947C124.619 89.5789 124.374 89.3339 124.07 89.1597C123.776 88.9854 123.443 88.8983 123.073 88.8983ZM130.784 96.1667L127.942 87.6243H129.902L131.715 93.8637L133.626 87.6243H135.308L137.203 93.8637L139.049 87.6243H140.943L138.085 96.1667H136.321L134.443 89.96L132.548 96.1667H130.784ZM144.546 96.4117C144.111 96.4117 143.708 96.3463 143.338 96.2157C142.978 96.085 142.662 95.8999 142.39 95.6603C142.118 95.4208 141.906 95.1377 141.753 94.811C141.601 94.4843 141.525 94.125 141.525 93.733C141.525 93.1885 141.666 92.7149 141.949 92.312C142.243 91.8982 142.652 91.577 143.174 91.3483C143.697 91.1197 144.307 91.0053 145.004 91.0053C145.385 91.0053 145.749 91.0434 146.098 91.1197C146.446 91.185 146.778 91.283 147.094 91.4137V90.8747C147.094 90.4935 147.023 90.1614 146.882 89.8783C146.74 89.5843 146.539 89.3557 146.278 89.1923C146.016 89.029 145.7 88.9473 145.33 88.9473C144.938 88.9473 144.584 89.0508 144.269 89.2577C143.953 89.4645 143.719 89.7531 143.566 90.1233L141.835 89.7313C141.966 89.2522 142.2 88.8384 142.537 88.49C142.886 88.1415 143.299 87.8693 143.779 87.6733C144.269 87.4773 144.797 87.3793 145.363 87.3793C145.896 87.3793 146.381 87.4664 146.817 87.6407C147.263 87.8149 147.644 88.0599 147.96 88.3757C148.276 88.6914 148.521 89.0671 148.695 89.5027C148.869 89.9382 148.956 90.4228 148.956 90.9563V96.1667H147.241L147.176 95.0397C146.947 95.4534 146.604 95.7855 146.147 96.036C145.69 96.2864 145.156 96.4117 144.546 96.4117ZM143.419 93.6513C143.419 93.8909 143.485 94.1087 143.615 94.3047C143.746 94.4898 143.926 94.6368 144.154 94.7457C144.394 94.8545 144.671 94.909 144.987 94.909C145.39 94.909 145.749 94.8219 146.065 94.6477C146.381 94.4734 146.631 94.2393 146.817 93.9453C147.002 93.6404 147.094 93.2974 147.094 92.9163V92.7203C146.811 92.6005 146.517 92.508 146.212 92.4427C145.918 92.3664 145.613 92.3283 145.298 92.3283C144.731 92.3283 144.274 92.4481 143.926 92.6877C143.588 92.9272 143.419 93.2484 143.419 93.6513ZM150.977 96.1667V87.6243H152.692L152.774 89.029C152.991 88.5499 153.291 88.1797 153.672 87.9183C154.064 87.6461 154.521 87.51 155.044 87.51C155.207 87.51 155.365 87.5209 155.518 87.5427C155.67 87.5644 155.806 87.6025 155.926 87.657L155.714 89.4863C155.594 89.4428 155.469 89.4155 155.338 89.4047C155.207 89.3829 155.077 89.372 154.946 89.372C154.293 89.372 153.781 89.5898 153.411 90.0253C153.04 90.4609 152.855 91.0652 152.855 91.8383V96.1667H150.977ZM160.664 96.4117C160.097 96.4117 159.569 96.2973 159.079 96.0687C158.6 95.84 158.181 95.5242 157.822 95.1213C157.462 94.7184 157.179 94.2448 156.972 93.7003C156.776 93.1559 156.678 92.5679 156.678 91.9363C156.678 91.2939 156.782 90.695 156.989 90.1397C157.196 89.5843 157.484 89.0998 157.854 88.686C158.225 88.2722 158.655 87.951 159.145 87.7223C159.646 87.4937 160.185 87.3793 160.762 87.3793C161.328 87.3793 161.845 87.4991 162.313 87.7387C162.782 87.9782 163.168 88.3158 163.473 88.7513V84.0147H165.351V96.1667H163.636L163.555 94.7947C163.25 95.2955 162.847 95.693 162.346 95.987C161.845 96.2701 161.284 96.4117 160.664 96.4117ZM161.056 94.713C161.524 94.713 161.943 94.5932 162.313 94.3537C162.684 94.1032 162.972 93.7657 163.179 93.341C163.397 92.9163 163.506 92.4372 163.506 91.9037C163.506 91.3592 163.397 90.8747 163.179 90.45C162.972 90.0253 162.684 89.6932 162.313 89.4537C161.943 89.2032 161.524 89.078 161.056 89.078C160.587 89.078 160.168 89.2032 159.798 89.4537C159.428 89.6932 159.134 90.0253 158.916 90.45C158.709 90.8747 158.606 91.3592 158.606 91.9037C158.606 92.4372 158.709 92.9163 158.916 93.341C159.134 93.7657 159.428 94.1032 159.798 94.3537C160.168 94.5932 160.587 94.713 161.056 94.713ZM171.343 96.4117C170.711 96.4117 170.129 96.3028 169.595 96.085C169.073 95.8563 168.615 95.5405 168.223 95.1377C167.831 94.7348 167.526 94.2611 167.309 93.7167C167.102 93.1613 166.998 92.5515 166.998 91.8873C166.998 91.2449 167.102 90.6514 167.309 90.107C167.526 89.5625 167.82 89.0889 168.191 88.686C168.572 88.2722 169.018 87.951 169.53 87.7223C170.042 87.4937 170.597 87.3793 171.196 87.3793C171.795 87.3793 172.339 87.4882 172.829 87.706C173.33 87.9129 173.76 88.2123 174.12 88.6043C174.49 88.9963 174.773 89.4645 174.969 90.009C175.165 90.5425 175.263 91.136 175.263 91.7893V92.3447H168.942C168.996 92.8455 169.127 93.2811 169.334 93.6513C169.552 94.0107 169.829 94.2883 170.167 94.4843C170.505 94.6803 170.897 94.7783 171.343 94.7783C172.236 94.7783 172.933 94.3809 173.434 93.586L175.083 94.223C174.887 94.6694 174.599 95.0614 174.218 95.399C173.847 95.7257 173.412 95.9761 172.911 96.1503C172.421 96.3245 171.898 96.4117 171.343 96.4117ZM171.196 88.8983C170.815 88.8983 170.472 88.9854 170.167 89.1597C169.873 89.3339 169.623 89.5789 169.416 89.8947C169.209 90.2104 169.067 90.5807 168.991 91.0053H173.303C173.238 90.5807 173.112 90.2104 172.927 89.8947C172.742 89.5789 172.497 89.3339 172.192 89.1597C171.898 88.9854 171.566 88.8983 171.196 88.8983ZM180.554 96.4117C179.988 96.4117 179.46 96.2973 178.97 96.0687C178.491 95.84 178.071 95.5242 177.712 95.1213C177.353 94.7184 177.07 94.2448 176.863 93.7003C176.667 93.1559 176.569 92.5679 176.569 91.9363C176.569 91.2939 176.672 90.695 176.879 90.1397C177.086 89.5843 177.374 89.0998 177.745 88.686C178.115 88.2722 178.545 87.951 179.035 87.7223C179.536 87.4937 180.075 87.3793 180.652 87.3793C181.218 87.3793 181.735 87.4991 182.204 87.7387C182.672 87.9782 183.058 88.3158 183.363 88.7513V84.0147H185.242V96.1667H183.527L183.445 94.7947C183.14 95.2955 182.737 95.693 182.236 95.987C181.735 96.2701 181.175 96.4117 180.554 96.4117ZM180.946 94.713C181.414 94.713 181.833 94.5932 182.204 94.3537C182.574 94.1032 182.862 93.7657 183.069 93.341C183.287 92.9163 183.396 92.4372 183.396 91.9037C183.396 91.3592 183.287 90.8747 183.069 90.45C182.862 90.0253 182.574 89.6932 182.204 89.4537C181.833 89.2032 181.414 89.078 180.946 89.078C180.478 89.078 180.059 89.2032 179.688 89.4537C179.318 89.6932 179.024 90.0253 178.806 90.45C178.599 90.8747 178.496 91.3592 178.496 91.9037C178.496 92.4372 178.599 92.9163 178.806 93.341C179.024 93.7657 179.318 94.1032 179.688 94.3537C180.059 94.5932 180.478 94.713 180.946 94.713ZM112.907 118.003C112.351 118.003 111.834 117.894 111.355 117.677C110.876 117.459 110.457 117.159 110.097 116.778C109.738 116.386 109.46 115.934 109.264 115.423C109.068 114.9 108.97 114.334 108.97 113.724C108.97 113.114 109.068 112.548 109.264 112.025C109.471 111.492 109.76 111.029 110.13 110.637C110.5 110.245 110.93 109.94 111.42 109.722C111.91 109.494 112.438 109.379 113.005 109.379C113.593 109.379 114.126 109.51 114.605 109.771C115.095 110.022 115.487 110.376 115.781 110.833L115.847 109.624H117.562V117.268C117.562 117.922 117.458 118.515 117.251 119.049C117.044 119.593 116.75 120.056 116.369 120.437C115.988 120.829 115.531 121.128 114.997 121.335C114.475 121.542 113.887 121.646 113.233 121.646C112.362 121.646 111.6 121.45 110.947 121.058C110.293 120.666 109.782 120.121 109.411 119.424L111.192 118.804C111.431 119.196 111.731 119.49 112.09 119.686C112.449 119.893 112.852 119.996 113.299 119.996C113.778 119.996 114.197 119.887 114.556 119.669C114.916 119.462 115.193 119.163 115.389 118.771C115.585 118.39 115.683 117.938 115.683 117.415V116.599C115.378 117.034 114.986 117.377 114.507 117.628C114.028 117.878 113.495 118.003 112.907 118.003ZM113.299 116.305C113.756 116.305 114.164 116.19 114.524 115.962C114.894 115.733 115.182 115.423 115.389 115.031C115.607 114.639 115.716 114.192 115.716 113.691C115.716 113.19 115.607 112.744 115.389 112.352C115.182 111.96 114.894 111.65 114.524 111.421C114.164 111.192 113.756 111.078 113.299 111.078C112.841 111.078 112.433 111.192 112.074 111.421C111.714 111.65 111.426 111.96 111.208 112.352C111.001 112.744 110.898 113.19 110.898 113.691C110.898 114.192 111.001 114.639 111.208 115.031C111.426 115.423 111.714 115.733 112.074 115.962C112.433 116.19 112.841 116.305 113.299 116.305ZM119.586 118.167V109.624H121.301L121.383 111.029C121.601 110.55 121.9 110.18 122.281 109.918C122.673 109.646 123.131 109.51 123.653 109.51C123.817 109.51 123.974 109.521 124.127 109.543C124.279 109.564 124.415 109.603 124.535 109.657L124.323 111.486C124.203 111.443 124.078 111.416 123.947 111.405C123.817 111.383 123.686 111.372 123.555 111.372C122.902 111.372 122.39 111.59 122.02 112.025C121.65 112.461 121.465 113.065 121.465 113.838V118.167H119.586ZM129.632 118.412C129.012 118.412 128.435 118.303 127.901 118.085C127.378 117.856 126.921 117.541 126.529 117.138C126.137 116.724 125.832 116.245 125.614 115.7C125.397 115.145 125.288 114.541 125.288 113.887C125.288 113.245 125.397 112.651 125.614 112.107C125.832 111.552 126.137 111.073 126.529 110.67C126.932 110.256 127.4 109.94 127.934 109.722C128.478 109.494 129.066 109.379 129.698 109.379C130.318 109.379 130.89 109.494 131.413 109.722C131.946 109.94 132.409 110.256 132.801 110.67C133.193 111.073 133.498 111.546 133.716 112.091C133.933 112.635 134.042 113.234 134.042 113.887C134.042 114.541 133.933 115.145 133.716 115.7C133.498 116.245 133.188 116.724 132.785 117.138C132.393 117.541 131.924 117.856 131.38 118.085C130.846 118.303 130.264 118.412 129.632 118.412ZM129.665 116.713C130.133 116.713 130.552 116.593 130.923 116.354C131.293 116.103 131.581 115.766 131.788 115.341C132.006 114.916 132.115 114.432 132.115 113.887C132.115 113.343 132.006 112.864 131.788 112.45C131.581 112.025 131.293 111.693 130.923 111.454C130.552 111.203 130.133 111.078 129.665 111.078C129.197 111.078 128.778 111.203 128.407 111.454C128.037 111.693 127.743 112.025 127.525 112.45C127.318 112.864 127.215 113.343 127.215 113.887C127.215 114.432 127.318 114.916 127.525 115.341C127.743 115.766 128.037 116.103 128.407 116.354C128.778 116.593 129.197 116.713 129.665 116.713ZM137.531 118.167L134.689 109.624H136.649L138.462 115.864L140.373 109.624H142.055L143.95 115.864L145.796 109.624H147.69L144.832 118.167H143.068L141.19 111.96L139.295 118.167H137.531ZM152.782 118.412C151.922 118.412 151.247 118.167 150.757 117.677C150.267 117.176 150.022 116.463 150.022 115.537V111.143H148.519V109.624H150.022V106.733H151.9V109.624H154.383V111.143H151.9V115.341C151.9 115.798 151.993 116.152 152.178 116.403C152.374 116.642 152.657 116.762 153.027 116.762C153.223 116.762 153.436 116.735 153.664 116.68C153.893 116.615 154.105 116.528 154.301 116.419L154.726 117.84C154.475 118.014 154.181 118.15 153.844 118.248C153.517 118.357 153.163 118.412 152.782 118.412ZM156.209 118.167V106.015H158.087V110.653C158.348 110.261 158.697 109.951 159.132 109.722C159.568 109.494 160.058 109.379 160.602 109.379C161.245 109.379 161.8 109.532 162.268 109.837C162.747 110.142 163.118 110.572 163.379 111.127C163.64 111.682 163.771 112.336 163.771 113.087V118.167H161.893V113.299C161.893 112.602 161.735 112.058 161.419 111.666C161.114 111.274 160.684 111.078 160.129 111.078C159.737 111.078 159.383 111.171 159.067 111.356C158.762 111.541 158.523 111.791 158.348 112.107C158.174 112.423 158.087 112.788 158.087 113.201V118.167H156.209ZM172.833 118.003C172.277 118.003 171.76 117.894 171.281 117.677C170.802 117.459 170.383 117.159 170.023 116.778C169.664 116.386 169.386 115.934 169.19 115.423C168.994 114.9 168.896 114.334 168.896 113.724C168.896 113.114 168.994 112.548 169.19 112.025C169.397 111.492 169.686 111.029 170.056 110.637C170.426 110.245 170.856 109.94 171.346 109.722C171.836 109.494 172.365 109.379 172.931 109.379C173.519 109.379 174.052 109.51 174.531 109.771C175.021 110.022 175.413 110.376 175.707 110.833L175.773 109.624H177.488V117.268C177.488 117.922 177.384 118.515 177.177 119.049C176.971 119.593 176.677 120.056 176.295 120.437C175.914 120.829 175.457 121.128 174.923 121.335C174.401 121.542 173.813 121.646 173.159 121.646C172.288 121.646 171.526 121.45 170.873 121.058C170.219 120.666 169.708 120.121 169.337 119.424L171.118 118.804C171.357 119.196 171.657 119.49 172.016 119.686C172.375 119.893 172.778 119.996 173.225 119.996C173.704 119.996 174.123 119.887 174.482 119.669C174.842 119.462 175.119 119.163 175.315 118.771C175.511 118.39 175.609 117.938 175.609 117.415V116.599C175.305 117.034 174.913 117.377 174.433 117.628C173.954 117.878 173.421 118.003 172.833 118.003ZM173.225 116.305C173.682 116.305 174.09 116.19 174.45 115.962C174.82 115.733 175.109 115.423 175.315 115.031C175.533 114.639 175.642 114.192 175.642 113.691C175.642 113.19 175.533 112.744 175.315 112.352C175.109 111.96 174.82 111.65 174.45 111.421C174.09 111.192 173.682 111.078 173.225 111.078C172.767 111.078 172.359 111.192 172 111.421C171.64 111.65 171.352 111.96 171.134 112.352C170.927 112.744 170.824 113.19 170.824 113.691C170.824 114.192 170.927 114.639 171.134 115.031C171.352 115.423 171.64 115.733 172 115.962C172.359 116.19 172.767 116.305 173.225 116.305ZM183.269 118.412C182.507 118.412 181.843 118.248 181.276 117.922C180.721 117.595 180.285 117.132 179.97 116.533C179.665 115.924 179.512 115.21 179.512 114.394V109.624H181.391V114.426C181.391 115.134 181.559 115.695 181.897 116.109C182.235 116.512 182.697 116.713 183.285 116.713C183.873 116.713 184.336 116.512 184.674 116.109C185.011 115.695 185.18 115.134 185.18 114.426V109.624H187.058V114.394C187.058 115.199 186.9 115.907 186.585 116.517C186.28 117.116 185.844 117.584 185.278 117.922C184.712 118.248 184.042 118.412 183.269 118.412ZM191.696 118.412C191.26 118.412 190.858 118.346 190.487 118.216C190.128 118.085 189.812 117.9 189.54 117.66C189.268 117.421 189.055 117.138 188.903 116.811C188.751 116.484 188.674 116.125 188.674 115.733C188.674 115.189 188.816 114.715 189.099 114.312C189.393 113.898 189.801 113.577 190.324 113.348C190.847 113.12 191.456 113.005 192.153 113.005C192.534 113.005 192.899 113.043 193.248 113.12C193.596 113.185 193.928 113.283 194.244 113.414V112.875C194.244 112.494 194.173 112.161 194.032 111.878C193.89 111.584 193.689 111.356 193.427 111.192C193.166 111.029 192.85 110.947 192.48 110.947C192.088 110.947 191.734 111.051 191.418 111.258C191.103 111.465 190.868 111.753 190.716 112.123L188.985 111.731C189.115 111.252 189.349 110.838 189.687 110.49C190.035 110.142 190.449 109.869 190.928 109.673C191.418 109.477 191.946 109.379 192.513 109.379C193.046 109.379 193.531 109.466 193.966 109.641C194.413 109.815 194.794 110.06 195.11 110.376C195.425 110.691 195.67 111.067 195.845 111.503C196.019 111.938 196.106 112.423 196.106 112.956V118.167H194.391L194.326 117.04C194.097 117.453 193.754 117.786 193.297 118.036C192.839 118.286 192.306 118.412 191.696 118.412ZM190.569 115.651C190.569 115.891 190.634 116.109 190.765 116.305C190.896 116.49 191.075 116.637 191.304 116.746C191.544 116.855 191.821 116.909 192.137 116.909C192.54 116.909 192.899 116.822 193.215 116.648C193.531 116.473 193.781 116.239 193.966 115.945C194.151 115.64 194.244 115.297 194.244 114.916V114.72C193.961 114.601 193.667 114.508 193.362 114.443C193.068 114.366 192.763 114.328 192.447 114.328C191.881 114.328 191.424 114.448 191.075 114.688C190.738 114.927 190.569 115.248 190.569 115.651ZM198.127 118.167V109.624H199.842L199.923 111.029C200.141 110.55 200.44 110.18 200.822 109.918C201.214 109.646 201.671 109.51 202.194 109.51C202.357 109.51 202.515 109.521 202.667 109.543C202.82 109.564 202.956 109.603 203.076 109.657L202.863 111.486C202.743 111.443 202.618 111.416 202.488 111.405C202.357 111.383 202.226 111.372 202.096 111.372C201.442 111.372 200.93 111.59 200.56 112.025C200.19 112.461 200.005 113.065 200.005 113.838V118.167H198.127ZM206.865 118.412C206.429 118.412 206.026 118.346 205.656 118.216C205.297 118.085 204.981 117.9 204.709 117.66C204.437 117.421 204.224 117.138 204.072 116.811C203.919 116.484 203.843 116.125 203.843 115.733C203.843 115.189 203.985 114.715 204.268 114.312C204.562 113.898 204.97 113.577 205.493 113.348C206.016 113.12 206.625 113.005 207.322 113.005C207.703 113.005 208.068 113.043 208.417 113.12C208.765 113.185 209.097 113.283 209.413 113.414V112.875C209.413 112.494 209.342 112.161 209.201 111.878C209.059 111.584 208.858 111.356 208.596 111.192C208.335 111.029 208.019 110.947 207.649 110.947C207.257 110.947 206.903 111.051 206.587 111.258C206.271 111.465 206.037 111.753 205.885 112.123L204.154 111.731C204.284 111.252 204.518 110.838 204.856 110.49C205.204 110.142 205.618 109.869 206.097 109.673C206.587 109.477 207.115 109.379 207.682 109.379C208.215 109.379 208.7 109.466 209.135 109.641C209.582 109.815 209.963 110.06 210.279 110.376C210.594 110.691 210.839 111.067 211.014 111.503C211.188 111.938 211.275 112.423 211.275 112.956V118.167H209.56L209.495 117.04C209.266 117.453 208.923 117.786 208.466 118.036C208.008 118.286 207.475 118.412 206.865 118.412ZM205.738 115.651C205.738 115.891 205.803 116.109 205.934 116.305C206.065 116.49 206.244 116.637 206.473 116.746C206.712 116.855 206.99 116.909 207.306 116.909C207.709 116.909 208.068 116.822 208.384 116.648C208.7 116.473 208.95 116.239 209.135 115.945C209.32 115.64 209.413 115.297 209.413 114.916V114.72C209.13 114.601 208.836 114.508 208.531 114.443C208.237 114.366 207.932 114.328 207.616 114.328C207.05 114.328 206.593 114.448 206.244 114.688C205.907 114.927 205.738 115.248 205.738 115.651ZM213.296 118.167V109.624H215.011L215.076 110.8C215.326 110.365 215.675 110.022 216.121 109.771C216.579 109.51 217.101 109.379 217.689 109.379C218.332 109.379 218.887 109.532 219.355 109.837C219.834 110.142 220.205 110.572 220.466 111.127C220.727 111.682 220.858 112.336 220.858 113.087V118.167H218.98V113.299C218.98 112.602 218.822 112.058 218.506 111.666C218.201 111.274 217.771 111.078 217.216 111.078C216.824 111.078 216.47 111.171 216.154 111.356C215.849 111.541 215.609 111.791 215.435 112.107C215.261 112.423 215.174 112.788 215.174 113.201V118.167H213.296ZM226.171 118.412C225.31 118.412 224.635 118.167 224.145 117.677C223.655 117.176 223.41 116.463 223.41 115.537V111.143H221.908V109.624H223.41V106.733H225.289V109.624H227.771V111.143H225.289V115.341C225.289 115.798 225.381 116.152 225.566 116.403C225.762 116.642 226.045 116.762 226.416 116.762C226.612 116.762 226.824 116.735 227.053 116.68C227.281 116.615 227.494 116.528 227.69 116.419L228.114 117.84C227.864 118.014 227.57 118.15 227.232 118.248C226.906 118.357 226.552 118.412 226.171 118.412ZM233.406 118.412C232.775 118.412 232.192 118.303 231.659 118.085C231.136 117.856 230.679 117.541 230.287 117.138C229.895 116.735 229.59 116.261 229.372 115.717C229.165 115.161 229.062 114.552 229.062 113.887C229.062 113.245 229.165 112.651 229.372 112.107C229.59 111.563 229.884 111.089 230.254 110.686C230.635 110.272 231.082 109.951 231.593 109.722C232.105 109.494 232.661 109.379 233.259 109.379C233.858 109.379 234.403 109.488 234.893 109.706C235.394 109.913 235.824 110.212 236.183 110.604C236.553 110.996 236.836 111.465 237.032 112.009C237.228 112.543 237.326 113.136 237.326 113.789V114.345H231.005C231.06 114.846 231.191 115.281 231.397 115.651C231.615 116.011 231.893 116.288 232.23 116.484C232.568 116.68 232.96 116.778 233.406 116.778C234.299 116.778 234.996 116.381 235.497 115.586L237.147 116.223C236.951 116.669 236.662 117.061 236.281 117.399C235.911 117.726 235.475 117.976 234.974 118.15C234.484 118.325 233.962 118.412 233.406 118.412ZM233.259 110.898C232.878 110.898 232.535 110.985 232.23 111.16C231.936 111.334 231.686 111.579 231.479 111.895C231.272 112.21 231.131 112.581 231.054 113.005H235.366C235.301 112.581 235.176 112.21 234.991 111.895C234.806 111.579 234.561 111.334 234.256 111.16C233.962 110.985 233.63 110.898 233.259 110.898ZM242.977 118.412C242.345 118.412 241.763 118.303 241.229 118.085C240.706 117.856 240.249 117.541 239.857 117.138C239.465 116.735 239.16 116.261 238.942 115.717C238.736 115.161 238.632 114.552 238.632 113.887C238.632 113.245 238.736 112.651 238.942 112.107C239.16 111.563 239.454 111.089 239.824 110.686C240.206 110.272 240.652 109.951 241.164 109.722C241.676 109.494 242.231 109.379 242.83 109.379C243.429 109.379 243.973 109.488 244.463 109.706C244.964 109.913 245.394 110.212 245.753 110.604C246.124 110.996 246.407 111.465 246.603 112.009C246.799 112.543 246.897 113.136 246.897 113.789V114.345H240.576C240.63 114.846 240.761 115.281 240.968 115.651C241.186 116.011 241.463 116.288 241.801 116.484C242.138 116.68 242.53 116.778 242.977 116.778C243.87 116.778 244.567 116.381 245.067 115.586L246.717 116.223C246.521 116.669 246.233 117.061 245.851 117.399C245.481 117.726 245.046 117.976 244.545 118.15C244.055 118.325 243.532 118.412 242.977 118.412ZM242.83 110.898C242.449 110.898 242.106 110.985 241.801 111.16C241.507 111.334 241.256 111.579 241.049 111.895C240.843 112.21 240.701 112.581 240.625 113.005H244.937C244.871 112.581 244.746 112.21 244.561 111.895C244.376 111.579 244.131 111.334 243.826 111.16C243.532 110.985 243.2 110.898 242.83 110.898ZM252.188 118.412C251.622 118.412 251.093 118.297 250.603 118.069C250.124 117.84 249.705 117.524 249.346 117.121C248.986 116.718 248.703 116.245 248.496 115.7C248.3 115.156 248.202 114.568 248.202 113.936C248.202 113.294 248.306 112.695 248.513 112.14C248.72 111.584 249.008 111.1 249.378 110.686C249.749 110.272 250.179 109.951 250.669 109.722C251.17 109.494 251.709 109.379 252.286 109.379C252.852 109.379 253.369 109.499 253.837 109.739C254.306 109.978 254.692 110.316 254.997 110.751V106.015H256.875V118.167H255.16L255.079 116.795C254.774 117.296 254.371 117.693 253.87 117.987C253.369 118.27 252.808 118.412 252.188 118.412ZM252.58 116.713C253.048 116.713 253.467 116.593 253.837 116.354C254.208 116.103 254.496 115.766 254.703 115.341C254.921 114.916 255.03 114.437 255.03 113.904C255.03 113.359 254.921 112.875 254.703 112.45C254.496 112.025 254.208 111.693 253.837 111.454C253.467 111.203 253.048 111.078 252.58 111.078C252.112 111.078 251.692 111.203 251.322 111.454C250.952 111.693 250.658 112.025 250.44 112.45C250.233 112.875 250.13 113.359 250.13 113.904C250.13 114.437 250.233 114.916 250.44 115.341C250.658 115.766 250.952 116.103 251.322 116.354C251.692 116.593 252.112 116.713 252.58 116.713Z" fill="#060640"/>
<path d="M108.333 192.333C108.333 190.4 109.9 188.833 111.833 188.833C113.766 188.833 115.333 190.4 115.333 192.333V258.833H108.333V192.333Z" fill="url(#paint0_linear_1_2920)"/>
<path d="M134 173.667C134 171.734 135.567 170.167 137.5 170.167C139.433 170.167 141 171.734 141 173.667V258.833H134V173.667Z" fill="url(#paint1_linear_1_2920)"/>
<path d="M159.667 174.833C159.667 172.9 161.234 171.333 163.167 171.333C165.1 171.333 166.667 172.9 166.667 174.833V258.833H159.667V174.833Z" fill="url(#paint2_linear_1_2920)"/>
<path d="M185.333 191.167C185.333 189.234 186.9 187.667 188.833 187.667C190.766 187.667 192.333 189.234 192.333 191.167V258.833H185.333V191.167Z" fill="url(#paint3_linear_1_2920)"/>
<path d="M211 184.167C211 182.234 212.567 180.667 214.5 180.667C216.433 180.667 218 182.234 218 184.167V258.833H211V184.167Z" fill="url(#paint4_linear_1_2920)"/>
<path d="M262.333 148C262.333 146.067 263.9 144.5 265.833 144.5C267.766 144.5 269.333 146.067 269.333 148V258.833H262.333V148Z" fill="url(#paint5_linear_1_2920)"/>
<path d="M288 152.667C288 150.734 289.567 149.167 291.5 149.167C293.433 149.167 295 150.734 295 152.667V258.833H288V152.667Z" fill="url(#paint6_linear_1_2920)"/>
<path d="M78 243.667C78 243.667 109.477 169.115 149.75 169.583C170.777 169.828 178.403 192.61 199.333 190.583C227.231 187.882 222.059 140.301 250.083 139.833C264.932 139.586 270.863 154.436 285.667 153.25C307.986 151.462 326.5 113 326.5 113" stroke="#FF4755" stroke-width="1.75"/>
<path d="M236.667 142.167C236.667 140.234 238.234 138.667 240.167 138.667C242.1 138.667 243.667 140.234 243.667 142.167V258.833H236.667V142.167Z" fill="url(#paint7_linear_1_2920)"/>
<circle cx="240.167" cy="142.167" r="6.41667" fill="#FDBF00" stroke="white" stroke-width="1.16667"/>
</g>
</g>
<defs>
<filter id="filter0_d_1_2920" x="0" y="0" width="373.333" height="357" filterUnits="userSpaceOnUse" color-interpolation-filters="sRGB">
<feFlood flood-opacity="0" result="BackgroundImageFix"/>
<feColorMatrix in="SourceAlpha" type="matrix" values="0 0 0 0 0 0 0 0 0 0 0 0 0 0 0 0 0 0 127 0" result="hardAlpha"/>
<feOffset dx="-15" dy="20"/>
<feGaussianBlur stdDeviation="35"/>
<feComposite in2="hardAlpha" operator="out"/>
<feColorMatrix type="matrix" values="0 0 0 0 0 0 0 0 0 0 0 0 0 0 0.183333 0 0 0 0.03 0"/>
<feBlend mode="normal" in2="BackgroundImageFix" result="effect1_dropShadow_1_2920"/>
<feBlend mode="normal" in="SourceGraphic" in2="effect1_dropShadow_1_2920" result="shape"/>
</filter>
<linearGradient id="paint0_linear_1_2920" x1="111.833" y1="188.833" x2="111.833" y2="258.833" gradientUnits="userSpaceOnUse">
<stop stop-color="#DEEFFF"/>
<stop offset="1" stop-color="#DEEFFF" stop-opacity="0"/>
</linearGradient>
<linearGradient id="paint1_linear_1_2920" x1="137.5" y1="170.167" x2="137.5" y2="258.833" gradientUnits="userSpaceOnUse">
<stop stop-color="#DEEFFF"/>
<stop offset="1" stop-color="#DEEFFF" stop-opacity="0"/>
</linearGradient>
<linearGradient id="paint2_linear_1_2920" x1="163.167" y1="171.333" x2="163.167" y2="258.833" gradientUnits="userSpaceOnUse">
<stop stop-color="#DEEFFF"/>
<stop offset="1" stop-color="#DEEFFF" stop-opacity="0"/>
</linearGradient>
<linearGradient id="paint3_linear_1_2920" x1="188.833" y1="187.667" x2="188.833" y2="258.833" gradientUnits="userSpaceOnUse">
<stop stop-color="#DEEFFF"/>
<stop offset="1" stop-color="#DEEFFF" stop-opacity="0"/>
</linearGradient>
<linearGradient id="paint4_linear_1_2920" x1="214.5" y1="180.667" x2="214.5" y2="258.833" gradientUnits="userSpaceOnUse">
<stop stop-color="#DEEFFF"/>
<stop offset="1" stop-color="#DEEFFF" stop-opacity="0"/>
</linearGradient>
<linearGradient id="paint5_linear_1_2920" x1="265.833" y1="144.5" x2="265.833" y2="258.833" gradientUnits="userSpaceOnUse">
<stop stop-color="#DEEFFF"/>
<stop offset="1" stop-color="#DEEFFF" stop-opacity="0"/>
</linearGradient>
<linearGradient id="paint6_linear_1_2920" x1="291.5" y1="149.167" x2="291.5" y2="258.833" gradientUnits="userSpaceOnUse">
<stop stop-color="#DEEFFF"/>
<stop offset="1" stop-color="#DEEFFF" stop-opacity="0"/>
</linearGradient>
<linearGradient id="paint7_linear_1_2920" x1="240.167" y1="138.667" x2="240.167" y2="258.833" gradientUnits="userSpaceOnUse">
<stop stop-color="#DEEFFF"/>
<stop offset="1" stop-color="#DEEFFF" stop-opacity="0"/>
</linearGradient>
<clipPath id="clip0_1_2920">
<rect x="85" y="50" width="233.333" height="217" rx="10" fill="white"/>
</clipPath>
</defs>
</svg>
