<svg width="510" height="350" viewBox="0 0 510 350" fill="none" xmlns="http://www.w3.org/2000/svg">
<path d="M277.931 55.5862C233.971 55.5845 190.997 68.614 154.439 93.0281C117.882 117.442 89.3822 152.145 72.5412 192.751C55.7003 233.358 51.2741 278.045 59.8222 321.166C68.3702 364.287 89.5088 403.906 120.567 435.017C125.774 440.236 128.696 447.31 128.688 454.683C128.68 462.055 125.744 469.123 120.525 474.331C115.306 479.538 108.232 482.46 100.86 482.452C93.4869 482.444 86.4193 479.508 81.2116 474.289C55.4238 448.51 34.9761 417.897 21.0404 384.202C7.10463 350.507 -0.0453252 314.394 0.000216191 277.931C0.000216191 124.43 124.43 0 277.931 0C431.432 0 555.862 124.43 555.862 277.931C555.907 314.394 548.757 350.507 534.822 384.202C520.886 417.897 500.438 448.51 474.65 474.289C469.443 479.508 462.375 482.444 455.002 482.452C447.63 482.46 440.556 479.538 435.337 474.331C430.118 469.123 427.182 462.055 427.174 454.683C427.166 447.31 430.088 440.236 435.295 435.017C466.353 403.906 487.492 364.287 496.04 321.166C504.588 278.045 500.162 233.358 483.321 192.751C466.48 152.145 437.98 117.442 401.423 93.0281C364.865 68.614 321.891 55.5845 277.931 55.5862Z" fill="url(#paint0_linear_1_3149)" fill-opacity="0.8"/>
<defs>
<linearGradient id="paint0_linear_1_3149" x1="277.931" y1="0" x2="277.931" y2="482.452" gradientUnits="userSpaceOnUse">
<stop stop-color="white"/>
<stop offset="1" stop-color="white" stop-opacity="0"/>
</linearGradient>
</defs>
</svg>
